<?xml version="1.0" encoding="UTF-8" standalone="no"?>
<svg
   width="64pt"
   height="64pt"
   viewBox="0 0 22.577778 22.577778"
   version="1.1"
   id="svg831"
   inkscape:version="1.1.2 (1:1.1+202202050950+0a00cf5339)"
   sodipodi:docname="3 - Wishlish.svg"
   inkscape:export-filename="/media/taufikramadhan/Data/Tr Design Studio/Project Design/TR Creative Design/Icon Design/Project Hiring/Icon Icons/019 - Commerce And Shopping/5 - Send/3 - Wishlish.png"
   inkscape:export-xdpi="576"
   inkscape:export-ydpi="576"
   xmlns:inkscape="http://www.inkscape.org/namespaces/inkscape"
   xmlns:sodipodi="http://sodipodi.sourceforge.net/DTD/sodipodi-0.dtd"
   xmlns="http://www.w3.org/2000/svg"
   xmlns:svg="http://www.w3.org/2000/svg"
   xmlns:rdf="http://www.w3.org/1999/02/22-rdf-syntax-ns#"
   xmlns:cc="http://creativecommons.org/ns#"
   xmlns:dc="http://purl.org/dc/elements/1.1/">
  <defs
     id="defs825">
    <pattern
       id="EMFhbasepattern"
       patternUnits="userSpaceOnUse"
       width="6"
       height="6"
       x="0"
       y="0" />
    <pattern
       id="EMFhbasepattern-9"
       patternUnits="userSpaceOnUse"
       width="6"
       height="6"
       x="0"
       y="0" />
    <pattern
       id="EMFhbasepattern-0"
       patternUnits="userSpaceOnUse"
       width="6"
       height="6"
       x="0"
       y="0" />
    <pattern
       id="EMFhbasepattern-7"
       patternUnits="userSpaceOnUse"
       width="6"
       height="6"
       x="0"
       y="0" />
    <pattern
       id="EMFhbasepattern-2"
       patternUnits="userSpaceOnUse"
       width="6"
       height="6"
       x="0"
       y="0" />
    <pattern
       id="EMFhbasepattern-98"
       patternUnits="userSpaceOnUse"
       width="6"
       height="6"
       x="0"
       y="0" />
    <pattern
       id="EMFhbasepattern-6"
       patternUnits="userSpaceOnUse"
       width="6"
       height="6"
       x="0"
       y="0" />
    <pattern
       id="EMFhbasepattern-01"
       patternUnits="userSpaceOnUse"
       width="6"
       height="6"
       x="0"
       y="0" />
    <pattern
       id="EMFhbasepattern-07"
       patternUnits="userSpaceOnUse"
       width="6"
       height="6"
       x="0"
       y="0" />
    <pattern
       id="EMFhbasepattern-8"
       patternUnits="userSpaceOnUse"
       width="6"
       height="6"
       x="0"
       y="0" />
    <pattern
       id="EMFhbasepattern-4"
       patternUnits="userSpaceOnUse"
       width="6"
       height="6"
       x="0"
       y="0" />
    <pattern
       id="EMFhbasepattern-40"
       patternUnits="userSpaceOnUse"
       width="6"
       height="6"
       x="0"
       y="0" />
    <pattern
       id="EMFhbasepattern-08"
       patternUnits="userSpaceOnUse"
       width="6"
       height="6"
       x="0"
       y="0" />
    <pattern
       id="EMFhbasepattern-04"
       patternUnits="userSpaceOnUse"
       width="6"
       height="6"
       x="0"
       y="0" />
    <pattern
       id="EMFhbasepattern-014"
       patternUnits="userSpaceOnUse"
       width="6"
       height="6"
       x="0"
       y="0" />
    <pattern
       id="EMFhbasepattern-27"
       patternUnits="userSpaceOnUse"
       width="6"
       height="6"
       x="0"
       y="0" />
    <pattern
       id="EMFhbasepattern-09"
       patternUnits="userSpaceOnUse"
       width="6"
       height="6"
       x="0"
       y="0" />
    <pattern
       id="EMFhbasepattern-5"
       patternUnits="userSpaceOnUse"
       width="6"
       height="6"
       x="0"
       y="0" />
    <pattern
       id="EMFhbasepattern-018"
       patternUnits="userSpaceOnUse"
       width="6"
       height="6"
       x="0"
       y="0" />
  </defs>
  <sodipodi:namedview
     id="base"
     pagecolor="#ffffff"
     bordercolor="#666666"
     borderopacity="1.0"
     inkscape:pageopacity="0.0"
     inkscape:pageshadow="2"
     inkscape:zoom="4.4249417"
     inkscape:cx="40.791498"
     inkscape:cy="44.746353"
     inkscape:document-units="pt"
     inkscape:current-layer="layer1"
     showgrid="false"
     units="pt"
     inkscape:window-width="1366"
     inkscape:window-height="705"
     inkscape:window-x="0"
     inkscape:window-y="31"
     inkscape:window-maximized="1"
     inkscape:pagecheckerboard="true"
     inkscape:showpageshadow="false"
     inkscape:object-paths="true"
     inkscape:snap-intersection-paths="true"
     inkscape:snap-smooth-nodes="true"
     inkscape:snap-midpoints="true"
     showguides="true"
     inkscape:snap-bbox="true"
     inkscape:bbox-nodes="true"
     inkscape:snap-nodes="false"
     inkscape:snap-global="true"
     inkscape:document-rotation="0">
    <inkscape:grid
       type="xygrid"
       id="grid1378" />
    <sodipodi:guide
       position="0.97013831,21.607643"
       orientation="78.000048,0"
       id="guide1380"
       inkscape:locked="false" />
    <sodipodi:guide
       position="0.97013831,0.97013129"
       orientation="0,78.000005"
       id="guide1382"
       inkscape:locked="false" />
    <sodipodi:guide
       position="21.607639,0.97013129"
       orientation="-78.000048,0"
       id="guide1384"
       inkscape:locked="false" />
    <sodipodi:guide
       position="21.607639,21.607643"
       orientation="0,-78.000005"
       id="guide1386"
       inkscape:locked="false" />
  </sodipodi:namedview>
  <metadata
     id="metadata828">
    <rdf:RDF>
      <cc:Work
         rdf:about="">
        <dc:format>image/svg+xml</dc:format>
        <dc:type
           rdf:resource="http://purl.org/dc/dcmitype/StillImage" />
      </cc:Work>
    </rdf:RDF>
  </metadata>
  <g
     inkscape:label="Icon"
     inkscape:groupmode="layer"
     id="layer1"
     transform="translate(0,-274.42223)">
    <path
       id="path61548"
       style="color:#000000;clip-rule:evenodd;display:inline;fill:#000000;fill-rule:evenodd;stroke-width:1;stroke-linecap:round;stroke-linejoin:round;stroke-miterlimit:1.5;-inkscape-stroke:none"
       d="m 11.918209,275.70442 c -0.09856,0.10103 -0.180726,0.22034 -0.233394,0.35367 h -1.061651 c -0.183895,6.7e-4 -0.332273,0.15028 -0.331563,0.33417 v 0.33156 H 7.6989096 c -0.9616718,0 -1.7371292,0.81352 -1.7371292,1.79174 v 6.8627 c -7.324e-4,0.18485 0.1493007,0.33489 0.3341632,0.33416 0.1839022,-6.3e-4 0.3322913,-0.15025 0.331563,-0.33416 v -6.8627 c 0,-0.63219 0.4839322,-1.12537 1.071403,-1.12537 h 1.2605888 v 0.66573 H 7.6280461 c -0.1838909,-6.6e-4 -0.3335116,0.14767 -0.3341633,0.33157 v 8.32222 H 5.7036812 c -0.9947017,0 -1.7371292,0.94989 -1.7371292,2.04204 v 3.61728 c 6.991e-4,0.18282 0.1487419,0.33086 0.3315629,0.33156 0.1840893,0.001 0.3340974,-0.14747 0.3348133,-0.33156 v -3.61728 c 0,-0.79651 0.5138286,-1.37567 1.070753,-1.37567 h 7.9711618 c -0.252816,0.35148 -0.388125,0.81187 -0.388125,1.33147 v 5.21398 c 0,0.39891 -0.132125,0.77831 -0.351065,1.04475 -0.218876,0.26636 -0.496652,0.39788 -0.776898,0.39788 h -0.147578 c -0.547409,-0.004 -1.05645,-0.58193 -1.05645,-1.37631 v -0.28736 c 7.19e-4,-0.18384 -0.147728,-0.33345 -0.331563,-0.33417 H 3.6323887 c -0.1838357,7.3e-4 -0.3322822,0.15033 -0.3315628,0.33417 v 0.28736 c 0,1.08696 0.731203,2.03474 1.7176255,2.04202 h 7.1403036 c 0.494561,0 0.961128,-0.24099 1.289845,-0.64102 0.328656,-0.39996 0.503845,-0.92356 0.503845,-1.46732 v -0.22104 h 3.58998 c 0.96158,0 1.734529,-0.81262 1.734529,-1.79109 v -13.39384 c 0,-0.97822 -0.772856,-1.79174 -1.734529,-1.79174 h -2.592042 v -0.33156 c 7e-4,-0.18389 -0.147668,-0.33352 -0.331562,-0.33417 H 13.55392 c -0.05266,-0.13333 -0.134183,-0.25262 -0.232745,-0.35367 -0.175222,-0.17964 -0.417067,-0.31206 -0.71351,-0.31206 -0.285223,0.008 -0.51971,0.13803 -0.689456,0.31206 z m 0.702784,0.35367 c 0.06557,0 0.155124,0.0383 0.225592,0.11058 0.07047,0.0722 0.105967,0.17031 0.105967,0.22365 7.32e-4,0.18383 0.150328,0.33228 0.334164,0.33156 0.0092,-2.9e-4 0.01823,-0.001 0.0273,-0.003 v 0.003 h 0.969983 v 0.66638 h -3.329281 v -0.66638 h 0.980385 v -6.6e-4 c 0.0067,3.2e-4 0.01344,6.6e-4 0.02015,6.6e-4 0.18282,-6.6e-4 0.330849,-0.14874 0.331564,-0.33156 0,-0.0533 0.03745,-0.1514 0.107916,-0.22365 0.07047,-0.0722 0.160668,-0.11058 0.226242,-0.11058 z m -2.9951176,1.3321 h 0.6657256 v 0.33157 c -6.98e-4,0.18389 0.147674,0.33351 0.331563,0.33416 h 3.995658 c 0.18389,-6.6e-4 0.332266,-0.15027 0.331563,-0.33416 v -0.33157 h 0.665725 v 0.9973 c 0,0.18777 -0.143783,0.33415 -0.331562,0.33415 H 9.9574376 c -0.1877787,0 -0.331563,-0.14638 -0.331563,-0.33415 z m 6.6559616,0 h 1.260588 c 0.587473,0 1.068804,0.49318 1.068804,1.12537 v 13.39384 c 0,0.63258 -0.481238,1.12536 -1.068804,1.12536 h -3.58998 v -1.3321 h 2.995767 c 0.277385,0 0.515253,-0.12714 0.692381,-0.30426 0.177129,-0.17713 0.304906,-0.41564 0.304909,-0.69303 v -12.31788 c -6.67e-4,-0.18294 -0.14863,-0.33093 -0.331563,-0.33157 h -1.332102 z m -8.3222281,9.31952 8e-7,-7.98807 h 1.0584004 c 0.138494,0.38595 0.5087616,0.66573 0.9394281,0.66573 h 5.3271098 c 0.430666,0 0.800933,-0.27978 0.939428,-0.66573 h 1.055799 v 11.97853 c 0,0.19048 -0.160568,0.33676 -0.333187,0.33676 -0.160454,0 -0.333188,-0.13927 -0.333188,-0.33676 -1.3e-5,-0.77381 -0.0024,-1.21895 0,-1.99262 0,-0.56202 -0.157701,-1.05464 -0.451836,-1.41533 -0.272236,-0.33384 -0.665935,-0.58023 -1.120162,-0.58023 z m 3.1550481,-6.65595 c -0.18282,6.6e-4 -0.330849,0.14874 -0.331563,0.33156 -7.32e-4,0.18383 0.147727,0.33344 0.331563,0.33415 h 0.304909 l 0.0416,0.11575 c 0.0013,0.003 0.0025,0.006 0.0039,0.009 l 0.381623,1.30025 c 0.04186,0.1417 0.172106,0.23886 0.31986,0.23859 h 1.611656 c 0.151227,-7e-5 0.283402,-0.10203 0.321811,-0.24834 l 0.349117,-1.3321 c 0.05534,-0.21096 -0.103715,-0.41727 -0.321812,-0.41739 h -2.122652 l -0.04226,-0.11574 c -0.04883,-0.12999 -0.173204,-0.21601 -0.312059,-0.21584 z m 1.10586,0.99728 h 1.47383 l -0.174234,0.66573 h -1.103259 z m 0.225592,1.52584 c -0.183834,-7.3e-4 -0.333446,0.14772 -0.334162,0.33156 v 0.14043 c 7.32e-4,0.18383 0.150328,0.33228 0.334162,0.33156 0.183075,-3.6e-4 0.331499,-0.14849 0.332214,-0.33156 v -0.14043 c -7e-4,-0.18307 -0.149139,-0.33121 -0.332214,-0.33156 z m 0.99794,0 c -0.182822,6.9e-4 -0.330849,0.14874 -0.331563,0.33156 v 0.14043 c 7e-4,0.18282 0.148741,0.33084 0.331563,0.33156 0.183836,7.3e-4 0.333447,-0.14773 0.334164,-0.33156 v -0.14043 c -7.32e-4,-0.18384 -0.150328,-0.33228 -0.334164,-0.33156 z m -4.4845499,1.40297 c -0.1848446,-7e-4 -0.334868,0.14931 -0.3341632,0.33415 v 1.33211 c 7.322e-4,0.18383 0.1503349,0.33226 0.3341632,0.33156 h 1.3321019 c 0.182815,-7.3e-4 0.330832,-0.14874 0.331563,-0.33156 V 284.314 c 6.98e-4,-0.18382 -0.147734,-0.33342 -0.331563,-0.33415 z m 2.6609549,0.0663 c -0.183836,7.3e-4 -0.332283,0.15033 -0.331565,0.33415 3.68e-4,0.18308 0.14849,0.3315 0.331564,0.33222 h 3.32993 c 0.184089,7.3e-4 0.333805,-0.14812 0.334164,-0.33222 7.32e-4,-0.18484 -0.149311,-0.33488 -0.334164,-0.33415 z m -2.329392,0.60006 h 0.6663756 v 0.66573 H 9.2910613 Z m 2.329392,0.73204 c -0.183836,7.3e-4 -0.332283,0.15033 -0.331565,0.33416 7e-4,0.18282 0.148743,0.33086 0.331564,0.33156 h 4.32722 c 0.183835,7.3e-4 0.333446,-0.14772 0.334164,-0.33156 7.32e-4,-0.18485 -0.149313,-0.33489 -0.334164,-0.33416 z m 4.327219,5.32971 c 10e-4,0.11712 0.02514,0.22722 0.06566,0.32896 h -2.06089 v -2.3294 c 0,-0.43657 0.122448,-0.77483 0.302307,-0.99533 0.179346,-0.21986 0.404912,-0.33612 0.695632,-0.33612 0.287254,0.003 0.515633,0.11625 0.694981,0.33612 0.179861,0.22056 0.302308,0.55877 0.302308,0.99534 z M 5.6302174,288.0418 c -0.1828133,7.3e-4 -0.330832,0.14876 -0.3315629,0.33157 v 1.3321 c -6.99e-4,0.18383 0.1477349,0.33342 0.3315629,0.33417 h 1.3321025 c 0.183828,-7.5e-4 0.3322639,-0.15034 0.3315629,-0.33417 v -1.3321 c -7.323e-4,-0.18281 -0.1487496,-0.33084 -0.3315629,-0.33157 z m 2.6635549,0 c -0.1838357,-7.3e-4 -0.3334467,0.14772 -0.3341634,0.33157 -7.322e-4,0.18484 0.1493111,0.33488 0.3341634,0.33416 h 1.9978287 c 0.183836,-7.4e-4 0.332283,-0.15034 0.331563,-0.33416 -6.99e-4,-0.18283 -0.148742,-0.33085 -0.331563,-0.33157 z m -2.3319919,0.66573 h 0.6657262 v 0.66572 H 5.9617804 Z m 2.3319919,0.66572 c -0.184089,-7.3e-4 -0.3338052,0.14813 -0.3341634,0.33222 -7.322e-4,0.18485 0.1493111,0.33488 0.3341634,0.33417 h 0.6657261 c 0.1838356,-7.5e-4 0.3322823,-0.15034 0.3315629,-0.33417 -3.661e-4,-0.18308 -0.1484891,-0.3315 -0.3315629,-0.33222 z m 1.9978287,0 c -0.184089,-7.3e-4 -0.3338052,0.14813 -0.3341634,0.33222 -7.323e-4,0.18485 0.1493104,0.33488 0.3341634,0.33417 h 1.995229 c 0.184851,7.2e-4 0.334886,-0.14932 0.334163,-0.33417 -3.66e-4,-0.18409 -0.150075,-0.33294 -0.334163,-0.33222 z m -4.6613836,1.3321 c -0.1828133,7.3e-4 -0.330832,0.14876 -0.3315629,0.33157 v 1.3321 c 7.323e-4,0.18282 0.1487496,0.33083 0.3315629,0.33156 h 1.3321025 c 0.1828133,-7.3e-4 0.3308319,-0.14874 0.3315629,-0.33156 v -1.3321 c -7.323e-4,-0.18281 -0.1487496,-0.33084 -0.3315629,-0.33157 z m 2.6635549,0 c -0.1838357,-7.3e-4 -0.3334467,0.14774 -0.3341634,0.33157 -7.322e-4,0.18486 0.1493111,0.33488 0.3341634,0.33416 H 12.28683 c 0.184851,7.3e-4 0.334886,-0.1493 0.334163,-0.33416 -7.33e-4,-0.18383 -0.150329,-0.33228 -0.334163,-0.33157 z m -2.3319919,0.66573 h 0.6657262 v 0.66378 H 5.9617804 Z m 2.3319919,0.66378 c -0.1848523,-7.4e-4 -0.3348866,0.14931 -0.3341634,0.33416 7.323e-4,0.18384 0.1503277,0.33228 0.3341634,0.33156 h 1.9978287 c 0.182821,-6.9e-4 0.33085,-0.14874 0.331563,-0.33156 7.32e-4,-0.18383 -0.147727,-0.33345 -0.331563,-0.33416 z m -4.3265701,1.99718 h 6.3250488 c 0.0091,0.50347 0.173988,0.97396 0.447935,1.3321 H 5.0230022 c -0.5372071,-0.004 -1.0373358,-0.56056 -1.0558,-1.3321 z"
       sodipodi:nodetypes="sccccsscccsscccccsscccssccccscsccccscscscssssccccscssscccccccccccccsccccccccssssccssssccssccccccccssccccccscccsccccccccccccccccccccccccccsccsccsccccccccccccccccccccccsccscccccccccccccccccccccsccscccccccccccccccccccccccccccccccsccsccccccccsccsccccccc" />
  </g>
</svg>
